<svg xmlns="http://www.w3.org/2000/svg" xmlns:xlink="http://www.w3.org/1999/xlink" width="500" zoomAndPan="magnify" viewBox="0 0 375 374.999991" height="500" preserveAspectRatio="xMidYMid meet" version="1.0"><defs><clipPath id="86c3f625a9"><path d="M 374.996094 0.00390625 L 563.925781 188.933594 L 188.550781 564.304688 L -0.378906 375.375 Z M 374.996094 0.00390625 " clip-rule="nonzero"/></clipPath><clipPath id="87f0c36093"><path d="M 374.996094 0.00390625 L 563.335938 188.34375 L 188.335938 563.34375 L -0.00390625 375.003906 Z M 374.996094 0.00390625 " clip-rule="nonzero"/></clipPath><clipPath id="54ebc10c2b"><path d="M 102 37.5 L 123 37.5 L 123 55 L 102 55 Z M 102 37.5 " clip-rule="nonzero"/></clipPath><clipPath id="30612433a6"><path d="M 37.5 102 L 55 102 L 55 123 L 37.5 123 Z M 37.5 102 " clip-rule="nonzero"/></clipPath><clipPath id="751a7ed42f"><path d="M 102 170 L 123 170 L 123 187.5 L 102 187.5 Z M 102 170 " clip-rule="nonzero"/></clipPath><clipPath id="e42cd57bca"><path d="M 170 102 L 187.5 102 L 187.5 123 L 170 123 Z M 170 102 " clip-rule="nonzero"/></clipPath><clipPath id="ccddfd09eb"><path d="M 206.863281 187.5 L 337.363281 187.5 L 337.363281 337.5 L 206.863281 337.5 Z M 206.863281 187.5 " clip-rule="nonzero"/></clipPath></defs><rect x="-37.5" width="450" fill="#ffffff" y="-37.499999" height="449.999989" fill-opacity="1"/><rect x="-37.5" width="450" fill="#ffffff" y="-37.499999" height="449.999989" fill-opacity="1"/><rect x="-37.5" width="450" fill="#efebeb" y="-37.499999" height="449.999989" fill-opacity="1"/><g clip-path="url(#86c3f625a9)"><g clip-path="url(#87f0c36093)"><path fill="#222649" d="M 374.996094 0.00390625 L 563.925781 188.933594 L 188.550781 564.304688 L -0.378906 375.375 Z M 374.996094 0.00390625 " fill-opacity="1" fill-rule="nonzero"/></g></g><path fill="#f4bc33" d="M 163.570312 112.503906 C 163.570312 114.175781 163.488281 115.84375 163.324219 117.507812 C 163.160156 119.171875 162.914062 120.824219 162.585938 122.464844 C 162.261719 124.105469 161.855469 125.726562 161.371094 127.328125 C 160.882812 128.925781 160.320312 130.5 159.679688 132.046875 C 159.042969 133.589844 158.328125 135.101562 157.539062 136.574219 C 156.75 138.050781 155.890625 139.484375 154.960938 140.875 C 154.035156 142.265625 153.039062 143.605469 151.976562 144.898438 C 150.917969 146.191406 149.792969 147.429688 148.613281 148.613281 C 147.429688 149.792969 146.191406 150.917969 144.898438 151.976562 C 143.605469 153.039062 142.265625 154.035156 140.875 154.960938 C 139.484375 155.890625 138.050781 156.75 136.574219 157.539062 C 135.101562 158.328125 133.589844 159.042969 132.046875 159.679688 C 130.5 160.320312 128.929688 160.882812 127.328125 161.371094 C 125.726562 161.855469 124.105469 162.261719 122.464844 162.585938 C 120.828125 162.914062 119.175781 163.160156 117.507812 163.324219 C 115.84375 163.488281 114.175781 163.566406 112.503906 163.566406 C 110.832031 163.566406 109.164062 163.488281 107.5 163.324219 C 105.835938 163.160156 104.183594 162.914062 102.542969 162.585938 C 100.902344 162.261719 99.28125 161.855469 97.679688 161.371094 C 96.082031 160.882812 94.507812 160.320312 92.960938 159.679688 C 91.417969 159.042969 89.90625 158.328125 88.433594 157.539062 C 86.957031 156.75 85.523438 155.890625 84.132812 154.960938 C 82.742188 154.035156 81.402344 153.039062 80.109375 151.976562 C 78.816406 150.917969 77.578125 149.792969 76.394531 148.613281 C 75.214844 147.429688 74.09375 146.191406 73.03125 144.898438 C 71.96875 143.605469 70.976562 142.265625 70.046875 140.875 C 69.117188 139.484375 68.257812 138.050781 67.46875 136.574219 C 66.679688 135.101562 65.96875 133.589844 65.328125 132.046875 C 64.6875 130.5 64.125 128.925781 63.640625 127.328125 C 63.152344 125.726562 62.746094 124.105469 62.421875 122.464844 C 62.09375 120.824219 61.851562 119.171875 61.6875 117.507812 C 61.523438 115.84375 61.441406 114.175781 61.441406 112.503906 C 61.441406 110.832031 61.523438 109.164062 61.6875 107.5 C 61.851562 105.835938 62.09375 104.183594 62.421875 102.542969 C 62.746094 100.902344 63.152344 99.28125 63.640625 97.679688 C 64.125 96.082031 64.6875 94.507812 65.328125 92.960938 C 65.96875 91.417969 66.679688 89.90625 67.46875 88.433594 C 68.257812 86.957031 69.117188 85.523438 70.046875 84.132812 C 70.976562 82.742188 71.96875 81.402344 73.03125 80.109375 C 74.09375 78.816406 75.214844 77.578125 76.394531 76.394531 C 77.578125 75.214844 78.816406 74.089844 80.109375 73.03125 C 81.402344 71.96875 82.742188 70.976562 84.132812 70.046875 C 85.523438 69.117188 86.957031 68.257812 88.433594 67.46875 C 89.90625 66.679688 91.417969 65.964844 92.960938 65.328125 C 94.507812 64.6875 96.082031 64.125 97.679688 63.636719 C 99.28125 63.152344 100.902344 62.746094 102.542969 62.421875 C 104.183594 62.09375 105.835938 61.847656 107.5 61.683594 C 109.164062 61.523438 110.832031 61.441406 112.503906 61.441406 C 114.175781 61.441406 115.84375 61.523438 117.507812 61.683594 C 119.175781 61.847656 120.828125 62.09375 122.464844 62.421875 C 124.105469 62.746094 125.726562 63.152344 127.328125 63.636719 C 128.929688 64.125 130.5 64.6875 132.046875 65.328125 C 133.589844 65.964844 135.101562 66.679688 136.574219 67.46875 C 138.050781 68.257812 139.484375 69.117188 140.875 70.046875 C 142.265625 70.976562 143.605469 71.96875 144.898438 73.03125 C 146.191406 74.089844 147.429688 75.214844 148.613281 76.394531 C 149.792969 77.578125 150.917969 78.816406 151.976562 80.109375 C 153.039062 81.402344 154.035156 82.742188 154.960938 84.132812 C 155.890625 85.523438 156.75 86.957031 157.539062 88.433594 C 158.328125 89.90625 159.042969 91.417969 159.679688 92.960938 C 160.320312 94.507812 160.882812 96.082031 161.371094 97.679688 C 161.855469 99.28125 162.261719 100.902344 162.585938 102.542969 C 162.914062 104.183594 163.160156 105.835938 163.324219 107.5 C 163.488281 109.164062 163.570312 110.832031 163.570312 112.503906 Z M 163.570312 112.503906 " fill-opacity="1" fill-rule="nonzero"/><g clip-path="url(#54ebc10c2b)"><path fill="#f4bc33" d="M 102.421875 54.964844 L 112.503906 37.5 L 122.585938 54.964844 Z M 102.421875 54.964844 " fill-opacity="1" fill-rule="nonzero"/></g><path fill="#f4bc33" d="M 75.003906 67.714844 L 75 47.550781 L 92.464844 57.632812 Z M 75.003906 67.714844 " fill-opacity="1" fill-rule="nonzero"/><path fill="#f4bc33" d="M 57.632812 92.464844 L 47.546875 75.003906 L 67.714844 75.003906 Z M 57.632812 92.464844 " fill-opacity="1" fill-rule="nonzero"/><g clip-path="url(#30612433a6)"><path fill="#f4bc33" d="M 54.964844 122.585938 L 37.5 112.507812 L 54.964844 102.425781 Z M 54.964844 122.585938 " fill-opacity="1" fill-rule="nonzero"/></g><path fill="#f4bc33" d="M 67.714844 150.003906 L 47.546875 150.007812 L 57.632812 132.542969 Z M 67.714844 150.003906 " fill-opacity="1" fill-rule="nonzero"/><path fill="#f4bc33" d="M 92.464844 167.375 L 75.003906 177.460938 L 75.003906 157.296875 Z M 92.464844 167.375 " fill-opacity="1" fill-rule="nonzero"/><g clip-path="url(#751a7ed42f)"><path fill="#f4bc33" d="M 122.585938 170.042969 L 112.503906 187.511719 L 102.425781 170.042969 Z M 122.585938 170.042969 " fill-opacity="1" fill-rule="nonzero"/></g><path fill="#f4bc33" d="M 150.003906 157.296875 L 150.007812 177.460938 L 132.542969 167.375 Z M 150.003906 157.296875 " fill-opacity="1" fill-rule="nonzero"/><path fill="#f4bc33" d="M 167.375 132.542969 L 177.464844 150.007812 L 157.292969 150.003906 Z M 167.375 132.542969 " fill-opacity="1" fill-rule="nonzero"/><g clip-path="url(#e42cd57bca)"><path fill="#f4bc33" d="M 170.042969 102.425781 L 187.511719 112.503906 L 170.042969 122.585938 Z M 170.042969 102.425781 " fill-opacity="1" fill-rule="nonzero"/></g><path fill="#f4bc33" d="M 157.292969 75.003906 L 177.460938 75 L 167.375 92.464844 Z M 157.292969 75.003906 " fill-opacity="1" fill-rule="nonzero"/><path fill="#f4bc33" d="M 132.542969 57.632812 L 150.003906 47.546875 L 150.003906 67.714844 Z M 132.542969 57.632812 " fill-opacity="1" fill-rule="nonzero"/><g clip-path="url(#ccddfd09eb)"><path fill="#f9b132" d="M 272.707031 187.507812 C 309.292969 192.929688 337.363281 224.253906 337.363281 262.078125 C 337.363281 303.734375 303.347656 337.492188 261.394531 337.492188 C 239.996094 337.492188 220.675781 328.683594 206.863281 314.546875 C 210.550781 315.101562 214.332031 315.394531 218.171875 315.394531 C 260.128906 315.394531 294.140625 281.621094 294.140625 239.980469 C 294.140625 219.574219 285.972656 201.082031 272.707031 187.507812 Z M 272.707031 187.507812 " fill-opacity="1" fill-rule="nonzero"/></g></svg>