<svg xmlns="http://www.w3.org/2000/svg" xmlns:xlink="http://www.w3.org/1999/xlink" width="500" zoomAndPan="magnify" viewBox="0 0 375 374.999991" height="500" preserveAspectRatio="xMidYMid meet" version="1.0"><defs><clipPath id="9fa604f67a"><path d="M 54 54 L 375 54 L 375 375 L 54 375 Z M 54 54 " clip-rule="nonzero"/></clipPath><clipPath id="de4c188378"><path d="M 187.398438 -77.421875 L 452.035156 187.214844 L 186.867188 452.378906 L -77.765625 187.746094 Z M 187.398438 -77.421875 " clip-rule="nonzero"/></clipPath><clipPath id="d30fafeb78"><path d="M 187.398438 -77.421875 L 452.035156 187.214844 L 186.867188 452.378906 L -77.765625 187.746094 Z M 187.398438 -77.421875 " clip-rule="nonzero"/></clipPath><clipPath id="21192a5e04"><path d="M 187.398438 -77.421875 L 452.035156 187.214844 L 186.867188 452.378906 L -77.765625 187.746094 Z M 187.398438 -77.421875 " clip-rule="nonzero"/></clipPath><clipPath id="7802c85fc6"><path d="M 0 0 L 320 0 L 320 320 L 0 320 Z M 0 0 " clip-rule="nonzero"/></clipPath><clipPath id="20c845ba56"><path d="M 187.398438 -77.421875 L 452.035156 187.214844 L 186.867188 452.378906 L -77.765625 187.746094 Z M 187.398438 -77.421875 " clip-rule="nonzero"/></clipPath><clipPath id="2011b8eddc"><path d="M 187.398438 -77.421875 L 452.035156 187.214844 L 186.867188 452.378906 L -77.765625 187.746094 Z M 187.398438 -77.421875 " clip-rule="nonzero"/></clipPath><clipPath id="d407d6da72"><path d="M 187.398438 -77.421875 L 452.035156 187.214844 L 186.867188 452.378906 L -77.765625 187.746094 Z M 187.398438 -77.421875 " clip-rule="nonzero"/></clipPath><clipPath id="10b2a5fe6f"><path d="M 107 60.800781 L 125 60.800781 L 125 77 L 107 77 Z M 107 60.800781 " clip-rule="nonzero"/></clipPath><clipPath id="d9d4be947d"><path d="M 50.25 117 L 66 117 L 66 136 L 50.25 136 Z M 50.25 117 " clip-rule="nonzero"/></clipPath><clipPath id="89a9672249"><path d="M 107 176 L 125 176 L 125 192.050781 L 107 192.050781 Z M 107 176 " clip-rule="nonzero"/></clipPath><clipPath id="b7bfa49c64"><path d="M 166 117 L 181.5 117 L 181.5 136 L 166 136 Z M 166 117 " clip-rule="nonzero"/></clipPath><clipPath id="bff02774b1"><path d="M 195.511719 180.027344 L 316.261719 180.027344 L 316.261719 318.027344 L 195.511719 318.027344 Z M 195.511719 180.027344 " clip-rule="nonzero"/></clipPath></defs><g clip-path="url(#9fa604f67a)"><g clip-path="url(#de4c188378)"><g clip-path="url(#d30fafeb78)"><g clip-path="url(#21192a5e04)"><path fill="#2f3140" d="M 319.480469 54.625 L 54.3125 319.792969 C 127.519531 393 246.234375 392.992188 319.457031 319.769531 C 392.679688 246.546875 392.6875 127.835938 319.480469 54.625 Z M 319.480469 54.625 " fill-opacity="1" fill-rule="nonzero"/><path fill="#2f3140" d="M 319.480469 54.625 L 54.3125 319.792969 C 127.519531 393 246.234375 392.992188 319.457031 319.769531 C 392.679688 246.546875 392.6875 127.835938 319.480469 54.625 Z M 319.480469 54.625 " fill-opacity="1" fill-rule="nonzero"/></g></g></g></g><g clip-path="url(#7802c85fc6)"><g clip-path="url(#20c845ba56)"><g clip-path="url(#2011b8eddc)"><g clip-path="url(#d407d6da72)"><path fill="#efebeb" d="M 319.675781 54.828125 C 246.441406 -18.097656 127.945312 -17.996094 54.820312 55.132812 C -18.308594 128.257812 -18.410156 246.753906 54.515625 319.988281 Z M 319.675781 54.828125 " fill-opacity="1" fill-rule="nonzero"/></g></g></g></g><path fill="#f4bc33" d="M 160.558594 126.429688 C 160.558594 127.890625 160.488281 129.351562 160.34375 130.808594 C 160.199219 132.265625 159.984375 133.710938 159.699219 135.144531 C 159.414062 136.582031 159.058594 138 158.636719 139.398438 C 158.210938 140.800781 157.71875 142.175781 157.15625 143.527344 C 156.597656 144.878906 155.972656 146.199219 155.285156 147.492188 C 154.59375 148.78125 153.84375 150.035156 153.027344 151.253906 C 152.214844 152.46875 151.34375 153.644531 150.417969 154.773438 C 149.488281 155.90625 148.507812 156.988281 147.472656 158.023438 C 146.4375 159.058594 145.355469 160.039062 144.222656 160.96875 C 143.09375 161.894531 141.917969 162.765625 140.703125 163.578125 C 139.484375 164.394531 138.230469 165.144531 136.941406 165.835938 C 135.648438 166.523438 134.328125 167.148438 132.976562 167.707031 C 131.625 168.269531 130.25 168.761719 128.847656 169.1875 C 127.449219 169.609375 126.03125 169.964844 124.59375 170.25 C 123.160156 170.535156 121.714844 170.75 120.257812 170.894531 C 118.800781 171.039062 117.339844 171.109375 115.878906 171.109375 C 114.414062 171.109375 112.953125 171.039062 111.5 170.894531 C 110.042969 170.75 108.597656 170.535156 107.160156 170.25 C 105.726562 169.964844 104.308594 169.609375 102.90625 169.1875 C 101.507812 168.761719 100.132812 168.269531 98.777344 167.707031 C 97.425781 167.148438 96.105469 166.523438 94.816406 165.832031 C 93.523438 165.144531 92.269531 164.394531 91.054688 163.578125 C 89.835938 162.765625 88.664062 161.894531 87.53125 160.96875 C 86.402344 160.039062 85.316406 159.058594 84.285156 158.023438 C 83.25 156.988281 82.265625 155.90625 81.339844 154.773438 C 80.410156 153.644531 79.539062 152.46875 78.726562 151.253906 C 77.914062 150.035156 77.164062 148.78125 76.472656 147.492188 C 75.78125 146.199219 75.15625 144.878906 74.597656 143.527344 C 74.039062 142.175781 73.546875 140.800781 73.121094 139.398438 C 72.695312 138 72.339844 136.582031 72.054688 135.144531 C 71.769531 133.710938 71.554688 132.265625 71.410156 130.808594 C 71.269531 129.351562 71.195312 127.890625 71.195312 126.429688 C 71.195312 124.964844 71.269531 123.503906 71.410156 122.050781 C 71.554688 120.59375 71.769531 119.148438 72.054688 117.710938 C 72.339844 116.277344 72.695312 114.859375 73.121094 113.457031 C 73.546875 112.058594 74.039062 110.683594 74.597656 109.328125 C 75.15625 107.976562 75.78125 106.65625 76.472656 105.367188 C 77.164062 104.074219 77.914062 102.820312 78.726562 101.605469 C 79.539062 100.386719 80.410156 99.214844 81.339844 98.082031 C 82.265625 96.953125 83.25 95.867188 84.285156 94.835938 C 85.316406 93.800781 86.402344 92.816406 87.53125 91.890625 C 88.664062 90.960938 89.835938 90.089844 91.054688 89.277344 C 92.269531 88.464844 93.523438 87.714844 94.816406 87.023438 C 96.105469 86.332031 97.425781 85.707031 98.777344 85.148438 C 100.132812 84.589844 101.507812 84.097656 102.90625 83.671875 C 104.308594 83.246094 105.726562 82.890625 107.160156 82.605469 C 108.597656 82.320312 110.042969 82.105469 111.5 81.960938 C 112.953125 81.820312 114.414062 81.746094 115.878906 81.746094 C 117.339844 81.746094 118.800781 81.820312 120.257812 81.960938 C 121.714844 82.105469 123.160156 82.320312 124.59375 82.605469 C 126.03125 82.890625 127.449219 83.246094 128.847656 83.671875 C 130.25 84.097656 131.625 84.589844 132.976562 85.148438 C 134.328125 85.707031 135.648438 86.332031 136.941406 87.023438 C 138.230469 87.714844 139.484375 88.464844 140.703125 89.277344 C 141.917969 90.089844 143.09375 90.960938 144.222656 91.890625 C 145.355469 92.816406 146.4375 93.800781 147.472656 94.835938 C 148.507812 95.867188 149.488281 96.953125 150.417969 98.082031 C 151.34375 99.214844 152.214844 100.386719 153.027344 101.605469 C 153.84375 102.820312 154.59375 104.074219 155.285156 105.367188 C 155.972656 106.65625 156.597656 107.976562 157.15625 109.328125 C 157.71875 110.683594 158.210938 112.058594 158.636719 113.457031 C 159.058594 114.859375 159.414062 116.277344 159.699219 117.710938 C 159.984375 119.148438 160.199219 120.59375 160.34375 122.050781 C 160.488281 123.503906 160.558594 124.964844 160.558594 126.429688 Z M 160.558594 126.429688 " fill-opacity="1" fill-rule="nonzero"/><g clip-path="url(#10b2a5fe6f)"><path fill="#f4bc33" d="M 107.058594 76.082031 L 115.878906 60.800781 L 124.699219 76.082031 Z M 107.058594 76.082031 " fill-opacity="1" fill-rule="nonzero"/></g><path fill="#f4bc33" d="M 83.066406 87.238281 L 83.0625 69.59375 L 98.34375 78.417969 Z M 83.066406 87.238281 " fill-opacity="1" fill-rule="nonzero"/><path fill="#f4bc33" d="M 67.867188 108.894531 L 59.042969 93.617188 L 76.6875 93.617188 Z M 67.867188 108.894531 " fill-opacity="1" fill-rule="nonzero"/><g clip-path="url(#d9d4be947d)"><path fill="#f4bc33" d="M 65.53125 135.25 L 50.25 126.429688 L 65.53125 117.609375 Z M 65.53125 135.25 " fill-opacity="1" fill-rule="nonzero"/></g><path fill="#f4bc33" d="M 76.6875 159.242188 L 59.042969 159.246094 L 67.867188 143.964844 Z M 76.6875 159.242188 " fill-opacity="1" fill-rule="nonzero"/><path fill="#f4bc33" d="M 98.34375 174.441406 L 83.0625 183.265625 L 83.066406 165.621094 Z M 98.34375 174.441406 " fill-opacity="1" fill-rule="nonzero"/><g clip-path="url(#89a9672249)"><path fill="#f4bc33" d="M 124.699219 176.777344 L 115.878906 192.058594 L 107.058594 176.777344 Z M 124.699219 176.777344 " fill-opacity="1" fill-rule="nonzero"/></g><path fill="#f4bc33" d="M 148.691406 165.621094 L 148.695312 183.265625 L 133.414062 174.441406 Z M 148.691406 165.621094 " fill-opacity="1" fill-rule="nonzero"/><path fill="#f4bc33" d="M 163.890625 143.964844 L 172.71875 159.242188 L 155.070312 159.242188 Z M 163.890625 143.964844 " fill-opacity="1" fill-rule="nonzero"/><g clip-path="url(#b7bfa49c64)"><path fill="#f4bc33" d="M 166.222656 117.609375 L 181.507812 126.429688 L 166.222656 135.25 Z M 166.222656 117.609375 " fill-opacity="1" fill-rule="nonzero"/></g><path fill="#f4bc33" d="M 155.070312 93.617188 L 172.714844 93.613281 L 163.890625 108.894531 Z M 155.070312 93.617188 " fill-opacity="1" fill-rule="nonzero"/><path fill="#f4bc33" d="M 133.414062 78.417969 L 148.691406 69.589844 L 148.691406 87.238281 Z M 133.414062 78.417969 " fill-opacity="1" fill-rule="nonzero"/><g clip-path="url(#bff02774b1)"><path fill="#f9b132" d="M 256.433594 180.03125 C 290.289062 185.015625 316.261719 213.839844 316.261719 248.636719 C 316.261719 286.964844 284.789062 318.023438 245.96875 318.023438 C 226.167969 318.023438 208.292969 309.921875 195.511719 296.914062 C 198.921875 297.425781 202.421875 297.691406 205.976562 297.691406 C 244.796875 297.691406 276.269531 266.621094 276.269531 228.304688 C 276.269531 209.53125 268.710938 192.515625 256.433594 180.03125 Z M 256.433594 180.03125 " fill-opacity="1" fill-rule="nonzero"/></g></svg>